# xmcd
#
# Track frame offsets:
#	150
#	23539
#	52508
#	76813
#	99876
#	120639
#	140696
#	170332
#	191354
#	211103
#	232665
#	258023
#	282587
#
# Disc length: 4098 seconds
#
# Revision: 3
# Processed by: cddbd v1.5.2PL0 Copyright (c) Steve Scherf et al.
# Submitted via: EZCDAudioConverter 7.1.7.1
#
DISCID=9310000d
DTITLE=罗海英 - 金色呼唤 Dts-Es6.1
DYEAR=2010
DGENRE=DTSES
TTITLE0=梦中的额吉
TTITLE1=西海情歌
TTITLE2=唱首情歌给草原
TTITLE3=龙图腾
TTITLE4=美丽的草原我的家
TTITLE5=雕花的马鞍
TTITLE6=梦回西藏
TTITLE7=小白船
TTITLE8=凤凰展翅
TTITLE9=陪你一起看草原
TTITLE10=高原蓝
TTITLE11=心中的恋人
TTITLE12=慈祥的母亲
EXTD=
EXTT0=
EXTT1=
EXTT2=
EXTT3=
EXTT4=
EXTT5=
EXTT6=
EXTT7=
EXTT8=
EXTT9=
EXTT10=
EXTT11=
EXTT12=
PLAYORDER=
